# xmcd CD database file
#
# Track frame offsets:
#	150
#	14172
#	34895
#	51915
#	72712
#	85029
#	100677
#	118355
#	131770
#
# Disc length: 1950 seconds
#
# Revision: 0
# Processed by: cddbd v1.5.2PL0 Copyright (c) Steve Scherf et al.
# Submitted via: CDex 1.51
#
DISCID=85079c09
DTITLE=Kaisa Kulhua - Pieniä enkeleitä
DYEAR=1996
DGENRE=Jazz
TTITLE0=Pieniä enkeleitä
TTITLE1=Kevätmuutto
TTITLE2=Kesäni
TTITLE3=Pellavapäinen poika
TTITLE4=Aurinko valkoinen
TTITLE5=Julialle
TTITLE6=Ikikukka
TTITLE7=Pudotetut sielut
TTITLE8=Rakkauslaulu
EXTD=YEAR: 1996
EXTT0=
EXTT1=
EXTT2=
EXTT3=
EXTT4=
EXTT5=
EXTT6=
EXTT7=
EXTT8=
PLAYORDER=
